HIERARCHY
ROOT Hips
{
    OFFSET 0.000000 0.000000 0.000000
    CHANNELS 6 Xposition Yposition Zposition Zrotation Xrotation Yrotation
    JOINT Spine
    {
        OFFSET -0.000000 7.305679 0.000000
        CHANNELS 3 Zrotation Xrotation Yrotation
        JOINT Spine1
        {
            OFFSET -0.000000 20.356625 0.000000
            CHANNELS 3 Zrotation Xrotation Yrotation
            JOINT Neck
            {
                OFFSET -0.000000 22.138498 0.000000
                CHANNELS 3 Zrotation Xrotation Yrotation
                JOINT Head
                {
                    OFFSET -0.000000 13.809516 1.781873
                    CHANNELS 3 Zrotation Xrotation Yrotation
                    End Site
                    {
                        OFFSET -0.000000 17.818729 0.000000
                    }
                }
            }
            JOINT LeftShoulder
            {
                OFFSET 3.599131 17.989975 0.023592
                CHANNELS 3 Zrotation Xrotation Yrotation
                JOINT LeftArm
                {
                    OFFSET 12.560995 0.000000 0.000000
                    CHANNELS 3 Zrotation Xrotation Yrotation
                    JOINT LeftForeArm
                    {
                        OFFSET 22.903347 0.000000 0.000000
                        CHANNELS 3 Zrotation Xrotation Yrotation
                        JOINT LeftHand
                        {
                            OFFSET 21.865294 0.000000 0.000000
                            CHANNELS 3 Zrotation Xrotation Yrotation
                            JOINT LeftHandThumb1
                            {
                                OFFSET 1.853706 -2.106484 2.949078
                                CHANNELS 3 Zrotation Xrotation Yrotation
                                JOINT LeftHandThumb2
                                {
                                    OFFSET 2.049154 0.000000 1.336405
                                    CHANNELS 3 Zrotation Xrotation Yrotation
                                    JOINT LeftHandThumb3
                                    {
                                        OFFSET 2.672809 0.000000 0.000000
                                        CHANNELS 3 Zrotation Xrotation Yrotation
                                        End Site
                                        {
                                            OFFSET 2.381303 0.000000 0.000000
                                        }
                                    }
                                }
                            }
                            JOINT LeftHandIndex1
                            {
                                OFFSET 7.583345 0.000000 2.949078
                                CHANNELS 3 Zrotation Xrotation Yrotation
                                JOINT LeftHandIndex2
                                {
                                    OFFSET 4.454682 0.000000 0.000000
                                    CHANNELS 3 Zrotation Xrotation Yrotation
                                    JOINT LeftHandIndex3
                                    {
                                        OFFSET 2.227341 0.000000 0.000000
                                        CHANNELS 3 Zrotation Xrotation Yrotation
                                        End Site
                                        {
                                            OFFSET 1.984419 0.000000 0.000000
                                        }
                                    }
                                }
                            }
                            JOINT LeftHandMiddle1
                            {
                                OFFSET 7.583345 0.000000 0.977409
                                CHANNELS 3 Zrotation Xrotation Yrotation
                                JOINT LeftHandMiddle2
                                {
                                    OFFSET 4.900151 0.000000 0.000000
                                    CHANNELS 3 Zrotation Xrotation Yrotation
                                    JOINT LeftHandMiddle3
                                    {
                                        OFFSET 2.672809 0.000000 0.000000
                                        CHANNELS 3 Zrotation Xrotation Yrotation
                                        End Site
                                        {
                                            OFFSET 2.381303 0.000000 0.000000
                                        }
                                    }
                                }
                            }
                            JOINT LeftHandRing1
                            {
                                OFFSET 7.162047 0.000000 -0.977409
                                CHANNELS 3 Zrotation Xrotation Yrotation
                                JOINT LeftHandRing2
                                {
                                    OFFSET 4.454682 0.000000 0.000000
                                    CHANNELS 3 Zrotation Xrotation Yrotation
                                    JOINT LeftHandRing3
                                    {
                                        OFFSET 2.227341 0.000000 0.000000
                                        CHANNELS 3 Zrotation Xrotation Yrotation
                                        End Site
                                        {
                                            OFFSET 1.984419 0.000000 0.000000
                                        }
                                    }
                                }
                            }
                            JOINT LeftHandPinky1
                            {
                                OFFSET 6.740750 0.000000 -2.949078
                                CHANNELS 3 Zrotation Xrotation Yrotation
                                JOINT LeftHandPinky2
                                {
                                    OFFSET 3.563746 0.000000 0.000000
                                    CHANNELS 3 Zrotation Xrotation Yrotation
                                    JOINT LeftHandPinky3
                                    {
                                        OFFSET 1.781873 0.000000 0.000000
                                        CHANNELS 3 Zrotation Xrotation Yrotation
                                        End Site
                                        {
                                            OFFSET 1.587536 0.000000 0.000000
                                        }
                                    }
                                }
                            }
                        }
                    }
                }
            }
            JOINT RightShoulder
            {
                OFFSET -3.506995 17.989975 0.023592
                CHANNELS 3 Zrotation Xrotation Yrotation
                JOINT RightArm
                {
                    OFFSET -12.560995 0.000000 0.000000
                    CHANNELS 3 Zrotation Xrotation Yrotation
                    JOINT RightForeArm
                    {
                        OFFSET -22.903347 0.000000 0.000000
                        CHANNELS 3 Zrotation Xrotation Yrotation
                        JOINT RightHand
                        {
                            OFFSET -21.865294 0.000000 0.000000
                            CHANNELS 3 Zrotation Xrotation Yrotation
                            JOINT RightHandThumb1
                            {
                                OFFSET -1.853706 -2.106484 2.949078
                                CHANNELS 3 Zrotation Xrotation Yrotation
                                JOINT RightHandThumb2
                                {
                                    OFFSET -2.049154 0.000000 1.336405
                                    CHANNELS 3 Zrotation Xrotation Yrotation
                                    JOINT RightHandThumb3
                                    {
                                        OFFSET -2.672809 0.000000 0.000000
                                        CHANNELS 3 Zrotation Xrotation Yrotation
                                        End Site
                                        {
                                            OFFSET -2.381303 0.000000 0.000000
                                        }
                                    }
                                }
                            }
                            JOINT RightHandIndex1
                            {
                                OFFSET -7.583345 0.000000 2.949078
                                CHANNELS 3 Zrotation Xrotation Yrotation
                                JOINT RightHandIndex2
                                {
                                    OFFSET -4.454682 0.000000 0.000000
                                    CHANNELS 3 Zrotation Xrotation Yrotation
                                    JOINT RightHandIndex3
                                    {
                                        OFFSET -2.227341 0.000000 0.000000
                                        CHANNELS 3 Zrotation Xrotation Yrotation
                                        End Site
                                        {
                                            OFFSET -1.984419 0.000000 0.000000
                                        }
                                    }
                                }
                            }
                            JOINT RightHandMiddle1
                            {
                                OFFSET -7.583345 0.000000 0.977409
                                CHANNELS 3 Zrotation Xrotation Yrotation
                                JOINT RightHandMiddle2
                                {
                                    OFFSET -4.900151 0.000000 0.000000
                                    CHANNELS 3 Zrotation Xrotation Yrotation
                                    JOINT RightHandMiddle3
                                    {
                                        OFFSET -2.672809 0.000000 0.000000
                                        CHANNELS 3 Zrotation Xrotation Yrotation
                                        End Site
                                        {
                                            OFFSET -2.381303 0.000000 0.000000
                                        }
                                    }
                                }
                            }
                            JOINT RightHandRing1
                            {
                                OFFSET -7.162047 0.000000 -0.977409
                                CHANNELS 3 Zrotation Xrotation Yrotation
                                JOINT RightHandRing2
                                {
                                    OFFSET -4.454682 0.000000 0.000000
                                    CHANNELS 3 Zrotation Xrotation Yrotation
                                    JOINT RightHandRing3
                                    {
                                        OFFSET -2.227341 0.000000 0.000000
                                        CHANNELS 3 Zrotation Xrotation Yrotation
                                        End Site
                                        {
                                            OFFSET -1.984419 0.000000 0.000000
                                        }
                                    }
                                }
                            }
                            JOINT RightHandPinky1
                            {
                                OFFSET -6.740750 0.000000 -2.949078
                                CHANNELS 3 Zrotation Xrotation Yrotation
                                JOINT RightHandPinky2
                                {
                                    OFFSET -3.563746 0.000000 0.000000
                                    CHANNELS 3 Zrotation Xrotation Yrotation
                                    JOINT RightHandPinky3
                                    {
                                        OFFSET -1.781873 0.000000 0.000000
                                        CHANNELS 3 Zrotation Xrotation Yrotation
                                        End Site
                                        {
                                            OFFSET -1.587536 0.000000 0.000000
                                        }
                                    }
                                }
                            }
                        }
                    }
                }
            }
        }
    }
    JOINT LeftUpLeg
    {
        OFFSET 8.909365 0.000000 0.000000
        CHANNELS 3 Zrotation Xrotation Yrotation
        JOINT LeftLeg
        {
            OFFSET -0.000000 -38.765560 0.000000
            CHANNELS 3 Zrotation Xrotation Yrotation
            JOINT LeftFoot
            {
                OFFSET -0.000000 -35.244961 0.000000
                CHANNELS 3 Zrotation Xrotation Yrotation
                JOINT LeftToeBase
                {
                    OFFSET -0.000000 -5.791087 13.364048
                    CHANNELS 3 Zrotation Xrotation Yrotation
                    End Site
                    {
                        OFFSET -0.000000 0.000000 3.563746
                    }
                }
            }
        }
    }
    JOINT RightUpLeg
    {
        OFFSET -8.909365 0.000000 0.000000
        CHANNELS 3 Zrotation Xrotation Yrotation
        JOINT RightLeg
        {
            OFFSET -0.000000 -38.765560 0.000000
            CHANNELS 3 Zrotation Xrotation Yrotation
            JOINT RightFoot
            {
                OFFSET -0.000000 -35.244961 0.000000
                CHANNELS 3 Zrotation Xrotation Yrotation
                JOINT RightToeBase
                {
                    OFFSET -0.000000 -5.791087 13.364048
                    CHANNELS 3 Zrotation Xrotation Yrotation
                    End Site
                    {
                        OFFSET -0.000000 0.000000 3.563746
                    }
                }
            }
        }
    }
}
MOTION
Frames:    4
Frame Time:    0.008333
-4.013527    81.372299    102.522507    -0.356891    0.709764    -0.069246    0.711770    -3.623995    -0.267619    -1.481499    7.400065    -0.000871    2.359444    -5.166050    -2.517630    1.684702    2.693556    -2.651445    2.466823    4.159082    -11.455250    -89.977425    29.929773    -1.067795    11.863008    -15.129376    -0.742913    -0.755100    -31.864662    11.469245    2.575456    -3.962935    -1.330619    0.000000    0.000000    0.000000    0.000000    0.000000    0.000000    -16.894913    2.197071    -7.193905    -34.066082    0.000000    0.000000    -17.033041    0.000000    0.000000    -28.156164    -0.703971    -1.467994    -56.325954    0.000000    0.000000    -28.162977    0.000000    0.000000    -39.105705    -4.653813    3.597040    -78.585831    0.000000    0.000000    -39.292915    0.000000    0.000000    -50.086613    -9.640139    7.974351    -101.520256    0.000000    0.000000    -50.760124    0.000000    0.000000    -4.519785    -4.452421    4.008914    98.903915    50.329411    -10.647156    -11.068774    -38.833233    -0.982465    13.261862    -42.410904    -8.302377    1.850764    -4.384444    8.168475    0.000000    0.000000    0.000000    0.000000    0.000000    0.000000    17.924860    0.000000    -0.000000    35.849720    0.000000    -0.000000    17.924860    0.000000    -0.000000    23.113348    -0.700182    -1.295138    46.247189    0.000000    -0.000000    23.123598    0.000000    -0.000000    28.286043    -1.514449    -2.521969    56.644665    0.000000    -0.000000    28.322332    0.000000    -0.000000    33.598862    -2.465342    -3.704481    67.357208    0.000000    -0.000000    33.678604    0.000000    -0.000000    -2.973740    2.207134    -1.108395    0.898990    -3.740472    19.087868    1.601111    0.545818    -10.504046    -0.009292    0.536506    0.086732    0.879659    1.806379    1.047003    1.057386    -0.061865    -6.113517    -0.739999    -3.488369    4.869575    -0.247764    -1.790509    0.210492    
-4.004866    81.372086    102.534416    -0.360757    0.712629    -0.096843    0.717464    -3.626810    -0.259740    -1.472242    7.377782    0.000474    2.355983    -5.133080    -2.506263    1.682769    2.698111    -2.639085    2.462218    4.161406    -11.462055    -89.974396    29.948462    -1.058015    11.868610    -15.127893    -0.749809    -0.809784    -31.879347    11.468928    2.572836    -3.930782    -1.299253    0.000000    0.000000    0.000000    0.000000    0.000000    0.000000    -16.902079    2.177506    -7.127362    -34.075413    0.000000    0.000000    -17.037706    0.000000    0.000000    -28.158859    -0.744847    -1.396732    -56.333267    0.000000    0.000000    -28.166639    0.000000    0.000000    -39.102272    -4.716043    3.669452    -78.591141    0.000000    0.000000    -39.295570    0.000000    0.000000    -50.076344    -9.723656    8.044772    -101.523491    0.000000    0.000000    -50.761745    0.000000    0.000000    -4.523783    -4.445339    4.011981    98.898376    50.328884    -10.644186    -11.068923    -38.797318    -0.993185    13.250079    -42.373581    -8.308851    1.864621    -4.384362    8.179325    0.000000    0.000000    0.000000    0.000000    0.000000    0.000000    17.897108    0.000000    -0.000000    35.794216    0.000000    -0.000000    17.897108    0.000000    -0.000000    23.087440    -0.702725    -1.301138    46.195557    0.000000    -0.000000    23.097776    0.000000    -0.000000    28.261848    -1.520104    -2.533691    56.596912    0.000000    -0.000000    28.298445    0.000000    -0.000000    33.576294    -2.474763    -3.721760    67.313431    0.000000    -0.000000    33.656712    0.000000    -0.000000    -2.981201    2.225691    -1.065759    0.906558    -3.763594    19.128925    1.604401    0.544095    -10.560352    -0.010064    0.539678    0.089001    0.874738    1.807371    1.057251    1.060799    -0.056982    -6.094817    -0.736722    -3.492816    4.868310    -0.248069    -1.793349    0.210688    
-3.996192    81.371834    102.546104    -0.364498    0.716172    -0.124369    0.723045    -3.629641    -0.252184    -1.463337    7.355187    0.002081    2.353141    -5.101709    -2.495041    1.680994    2.704393    -2.626880    2.457922    4.162724    -11.468725    -89.971535    29.966967    -1.047713    11.873857    -15.125505    -0.756400    -0.863456    -31.890842    11.468548    2.570566    -3.901269    -1.270273    0.000000    0.000000    0.000000    0.000000    0.000000    0.000000    -16.911480    2.160150    -7.067031    -34.089771    0.000000    0.000000    -17.044884    0.000000    0.000000    -28.163265    -0.782781    -1.330905    -56.343990    0.000000    0.000000    -28.171995    0.000000    0.000000    -39.099991    -4.774714    3.737356    -78.598206    0.000000    0.000000    -39.299095    0.000000    0.000000    -50.066582    -9.803131    8.111793    -101.526772    0.000000    0.000000    -50.763386    0.000000    0.000000    -4.527942    -4.438996    4.014330    98.893951    50.327656    -10.642017    -11.068758    -38.762054    -1.004151    13.237422    -42.337337    -8.315030    1.877258    -4.384811    8.190031    0.000000    0.000000    0.000000    0.000000    0.000000    0.000000    17.873503    0.000000    -0.000000    35.747005    0.000000    -0.000000    17.873503    0.000000    -0.000000    23.065605    -0.705230    -1.306863    46.152042    0.000000    -0.000000    23.076023    0.000000    -0.000000    28.241650    -1.525659    -2.544869    56.557087    0.000000    -0.000000    28.278543    0.000000    -0.000000    33.557644    -2.483992    -3.738225    67.277435    0.000000    -0.000000    33.638718    0.000000    -0.000000    -2.988868    2.243342    -1.023891    0.914324    -3.786549    19.169563    1.607495    0.542674    -10.615496    -0.010756    0.542662    0.091050    0.869583    1.807481    1.067886    1.064440    -0.052053    -6.077019    -0.733187    -3.497337    4.867517    -0.248439    -1.795921    0.211015    
-3.987462    81.371529    102.557465    -0.367780    0.720623    -0.151788    0.728179    -3.631850    -0.244717    -1.455021    7.331708    0.003731    2.351344    -5.073247    -2.484113    1.679778    2.713863    -2.615100    2.454335    4.162321    -11.475150    -89.969131    29.985445    -1.036599    11.878491    -15.122069    -0.762318    -0.915021    -31.896046    11.467957    2.569429    -3.876398    -1.244906    0.000000    0.000000    0.000000    0.000000    0.000000    0.000000    -16.924536    2.146478    -7.017085    -34.112309    0.000000    0.000000    -17.056158    0.000000    0.000000    -28.170483    -0.815737    -1.274247    -56.360157    0.000000    0.000000    -28.180071    0.000000    0.000000    -39.099682    -4.827300    3.797579    -78.607986    0.000000    0.000000    -39.304001    0.000000    0.000000    -50.057713    -9.875613    8.172913    -101.530014    0.000000    0.000000    -50.765007    0.000000    0.000000    -4.532514    -4.434315    4.015326    98.892502    50.325661    -10.642164    -11.068606    -38.728699    -1.015700    13.223405    -42.303391    -8.321020    1.888045    -4.386057    8.200509    0.000000    0.000000    0.000000    0.000000    0.000000    0.000000    17.858318    0.000000    -0.000000    35.716633    0.000000    -0.000000    17.858318    0.000000    -0.000000    23.051704    -0.707637    -1.312006    46.124397    0.000000    -0.000000    23.062202    0.000000    -0.000000    28.228907    -1.530952    -2.554900    56.532158    0.000000    -0.000000    28.266079    0.000000    -0.000000    33.545975    -2.492733    -3.752987    67.255310    0.000000    -0.000000    33.627655    0.000000    -0.000000    -2.997071    2.259777    -0.983577    0.922248    -3.809339    19.211401    1.610350    0.541699    -10.670372    -0.011391    0.545367    0.092928    0.863690    1.806243    1.079408    1.068589    -0.046730    -6.059036    -0.729966    -3.502052    4.865595    -0.248810    -1.798280    0.211366    
